<svg width="242" height="33" xmlns="http://www.w3.org/2000/svg"><g fill="none" fill-rule="evenodd"><g fill="#FFF"><path d="M103.632 8.252h-6.391v17.865h-2.609V8.252h-6.378V6.037h15.378v2.215zm9.697 5.258a7.514 7.514 0 00-1.243-.096c-1.657 0-2.781.71-3.373 2.133v10.57h-2.527V11.225h2.459l.04 1.72c.83-1.33 2.004-1.995 3.524-1.995.492 0 .865.064 1.12.193v2.367zm11.445 12.25c-.146-.294-.264-.817-.355-1.57-1.175 1.23-2.577 1.845-4.207 1.845-1.456 0-2.651-.416-3.585-1.246-.933-.83-1.4-1.883-1.4-3.159 0-1.55.585-2.755 1.755-3.612 1.17-.858 2.816-1.287 4.938-1.287h2.458v-1.17c0-.89-.264-1.6-.792-2.127-.528-.527-1.307-.791-2.336-.791-.901 0-1.657.23-2.267.688-.61.459-.915 1.014-.915 1.665h-2.54c0-.743.262-1.46.785-2.153.524-.693 1.234-1.241 2.13-1.645.898-.404 1.883-.606 2.958-.606 1.702 0 3.036.43 4.001 1.287.965.858 1.466 2.04 1.502 3.544v6.854c0 1.367.173 2.455.52 3.262v.22h-2.65zm-4.193-1.941c.792 0 1.543-.207 2.254-.62.71-.412 1.224-.95 1.543-1.61v-3.055h-1.98c-3.096 0-4.644.913-4.644 2.739 0 .798.264 1.422.792 1.871.528.45 1.207.675 2.035.675zm12.674-12.594l.082 1.872c1.13-1.431 2.604-2.147 4.425-2.147 3.123 0 4.698 1.775 4.725 5.326v9.841h-2.526v-9.854c-.01-1.074-.253-1.868-.73-2.381-.479-.514-1.223-.771-2.234-.771-.82 0-1.539.22-2.158.66a4.478 4.478 0 00-1.447 1.735v10.611h-2.527V11.225h2.39zm21.647 10.66c0-.688-.257-1.223-.772-1.603-.514-.381-1.41-.71-2.69-.984-1.28-.276-2.295-.606-3.046-.991-.75-.386-1.306-.845-1.666-1.377-.36-.532-.54-1.165-.54-1.9 0-1.22.513-2.252 1.537-3.096 1.024-.844 2.333-1.266 3.927-1.266 1.675 0 3.034.436 4.076 1.307 1.043.872 1.564 1.987 1.564 3.345h-2.54c0-.697-.294-1.298-.881-1.803-.587-.505-1.327-.757-2.22-.757-.919 0-1.638.202-2.157.606-.52.403-.779.93-.779 1.582 0 .615.242 1.078.724 1.39.483.312 1.354.61 2.615.895 1.261.284 2.284.624 3.067 1.018.783.395 1.363.87 1.74 1.425.379.555.568 1.232.568 2.03 0 1.33-.528 2.397-1.585 3.2-1.056.803-2.426 1.204-4.11 1.204-1.184 0-2.231-.21-3.142-.633-.91-.422-1.623-1.011-2.137-1.768a4.286 4.286 0 01-.772-2.457h2.527c.045.853.385 1.53 1.017 2.03.633.5 1.469.75 2.507.75.956 0 1.723-.195 2.3-.585.579-.39.868-.91.868-1.562zm8.563 4.232h-2.526V6.037h2.526v20.08zm13.166-.275c-.146-.294-.264-.817-.355-1.569-1.175 1.23-2.577 1.844-4.207 1.844-1.456 0-2.651-.415-3.585-1.245-.933-.83-1.4-1.884-1.4-3.159 0-1.55.585-2.755 1.755-3.613 1.17-.858 2.816-1.287 4.937-1.287h2.459v-1.17c0-.89-.264-1.598-.792-2.126-.528-.528-1.307-.791-2.336-.791-.901 0-1.657.229-2.267.688-.61.458-.915 1.014-.915 1.665h-2.54c0-.743.262-1.461.785-2.154.524-.693 1.234-1.24 2.13-1.645.898-.403 1.883-.605 2.957-.605 1.703 0 3.037.429 4.002 1.287.965.858 1.466 2.039 1.502 3.544v6.854c0 1.367.173 2.454.52 3.262v.22h-2.65zm-4.193-1.94c.792 0 1.543-.207 2.254-.62.71-.413 1.224-.95 1.543-1.61v-3.056h-1.98c-3.096 0-4.644.913-4.644 2.74 0 .797.264 1.421.792 1.87.528.45 1.207.675 2.035.675zM186.15 7.343v3.606h2.759v1.968h-2.759v9.235c0 .597.123 1.044.369 1.342.246.299.664.448 1.256.448.292 0 .692-.055 1.202-.166v2.065a7.272 7.272 0 01-1.94.275c-1.128 0-1.98-.344-2.553-1.032-.574-.688-.86-1.665-.86-2.932v-9.235h-2.691V10.95h2.69V7.344h2.527zm8.454 18.773h-2.527V11.225h2.527v14.892zM191.872 7.51c0-.413.126-.761.376-1.046.25-.284.621-.426 1.113-.426s.865.142 1.12.426c.255.285.382.633.382 1.046 0 .413-.127.757-.382 1.033-.255.275-.628.412-1.12.412-.492 0-.863-.137-1.113-.412-.25-.276-.376-.62-.376-1.033zm6.105 10.75c0-1.46.285-2.772.854-3.937s1.361-2.064 2.376-2.698c1.015-.633 2.174-.95 3.476-.95 2.012 0 3.64.703 4.883 2.107 1.242 1.403 1.864 3.27 1.864 5.601v.18c0 1.449-.276 2.75-.826 3.901-.551 1.152-1.339 2.049-2.363 2.69-1.025.643-2.201.964-3.53.964-2.004 0-3.627-.702-4.87-2.106-1.242-1.403-1.864-3.261-1.864-5.574v-.179zm2.54.302c0 1.652.38 2.978 1.141 3.978.76 1 1.778 1.5 3.052 1.5 1.284 0 2.304-.507 3.06-1.52.755-1.015 1.133-2.435 1.133-4.26 0-1.634-.384-2.957-1.154-3.971-.77-1.014-1.791-1.521-3.066-1.521-1.247 0-2.253.5-3.018 1.5-.765 1-1.147 2.432-1.147 4.294zm16.471-7.336l.082 1.872c1.13-1.431 2.604-2.147 4.425-2.147 3.123 0 4.698 1.775 4.726 5.326v9.841h-2.527v-9.854c-.009-1.074-.253-1.868-.73-2.381-.479-.514-1.223-.771-2.234-.771-.819 0-1.538.22-2.157.66a4.478 4.478 0 00-1.448 1.735v10.611h-2.527V11.225h2.39zm21.647 10.708c0-.688-.257-1.222-.771-1.603-.515-.381-1.412-.709-2.69-.984-1.28-.276-2.295-.606-3.046-.991-.752-.386-1.307-.844-1.667-1.377-.36-.532-.54-1.165-.54-1.899 0-1.22.513-2.253 1.537-3.097 1.025-.844 2.333-1.266 3.927-1.266 1.675 0 3.034.436 4.077 1.308 1.042.871 1.563 1.986 1.563 3.344h-2.54c0-.697-.294-1.298-.88-1.803-.588-.505-1.328-.757-2.22-.757-.92 0-1.64.202-2.158.606-.519.403-.779.931-.779 1.582 0 .615.242 1.079.724 1.39.483.313 1.355.61 2.616.895 1.26.285 2.283.624 3.066 1.019.783.394 1.363.869 1.741 1.424.378.555.567 1.232.567 2.03 0 1.33-.528 2.397-1.584 3.2-1.057.803-2.427 1.205-4.111 1.205-1.184 0-2.231-.211-3.141-.634-.91-.422-1.623-1.011-2.138-1.768a4.286 4.286 0 01-.771-2.457h2.526c.046.853.385 1.53 1.018 2.03.632.5 1.468.75 2.506.75.956 0 1.723-.195 2.301-.585.578-.39.867-.91.867-1.562zM37.937 26.156V6.036h6.782c1.937 0 3.67.399 5.2 1.196a8.732 8.732 0 013.58 3.4c.857 1.469 1.286 3.138 1.286 5.008v.926c0 1.87-.421 3.533-1.264 4.989-.842 1.455-2.03 2.584-3.565 3.385-1.534.802-3.264 1.207-5.192 1.216h-6.827zM42.48 9.394v13.432h2.194c1.777 0 3.134-.53 4.072-1.589.939-1.06 1.418-2.575 1.438-4.546v-1.064c0-2.045-.464-3.595-1.392-4.65-.929-1.055-2.286-1.583-4.072-1.583h-2.24zm24.81 16.762c-.202-.359-.348-.806-.44-1.34-1.059 1.078-2.436 1.617-4.132 1.617-1.604 0-2.934-.424-3.988-1.272-1.055-.847-1.582-1.916-1.582-3.205 0-1.585.643-2.801 1.93-3.649 1.286-.847 3.146-1.275 5.578-1.285h2.013v-.856c0-.691-.194-1.244-.583-1.659-.388-.414-1.001-.621-1.839-.621-.737 0-1.314.16-1.733.483-.419.323-.628.765-.628 1.327H57.51c0-.866.293-1.668.878-2.405.585-.737 1.413-1.315 2.483-1.734 1.07-.42 2.27-.629 3.602-.629 2.019 0 3.62.463 4.806 1.39 1.186.925 1.779 2.226 1.779 3.903v6.48c.01 1.42.227 2.493.65 3.22v.235h-4.42zM63.67 23.38a4.06 4.06 0 001.786-.394c.545-.263.949-.615 1.211-1.057v-2.57h-1.635c-2.19 0-3.355.69-3.496 2.072l-.016.235c0 .498.192.908.576 1.23.383.323.908.484 1.574.484zm16.863-2.874l3.028-9.3h4.692L81.67 28.478l-.363.788c-.979 1.953-2.593 2.93-4.844 2.93a7.494 7.494 0 01-1.938-.263v-3.027l.667.014c.827 0 1.445-.115 1.854-.345.409-.23.729-.613.961-1.147l.515-1.23-5.737-14.993h4.707l3.043 9.3z"/></g><path d="M15.426.026c.63-.142 1.296.32 1.366.958.105.604-.35 1.243-.946 1.35-.595.106-1.225-.32-1.33-.959-.106-.604.315-1.207.91-1.35zm5.218.852c.596-.142 1.226.284 1.331.888.14.603-.245 1.242-.84 1.384-.385.107-.84 0-1.12-.32-.281-.283-.421-.78-.281-1.17.14-.391.49-.711.91-.782zm-11.102.497c.56-.177 1.226.213 1.366.781.21.568-.14 1.243-.7 1.456-.386.142-.876.036-1.191-.249-.28-.284-.42-.745-.315-1.136.105-.426.455-.745.84-.852zm8.126.426c.28-.106.595-.035.84.142a.872.872 0 01.35.781.935.935 0 01-.49.746c-.28.142-.63.142-.876-.036a.9.9 0 01-.42-.852.83.83 0 01.596-.78zm-4.764.107a.893.893 0 01.736.106.98.98 0 01.42.781.93.93 0 01-.385.746.832.832 0 01-.98 0c-.28-.178-.42-.497-.42-.817 0-.355.28-.71.63-.816zm2.662.958c.35-.106.736.142.806.533.07.355-.21.71-.526.746-.315.035-.63-.178-.7-.462-.14-.355.07-.71.42-.817zm6.69.462c.28-.071.63 0 .875.213.21.213.315.533.28.817-.035.32-.28.603-.595.71a.933.933 0 01-.946-.213.903.903 0 01-.21-.923c.07-.284.315-.498.596-.604zm2.906.177c.526-.142 1.121.178 1.331.675.175.39.07.888-.21 1.207a1.17 1.17 0 01-1.156.355c-.49-.142-.875-.639-.84-1.136 0-.497.385-.958.875-1.1zm-5.253.107c.315-.107.735.071.806.426.105.355-.106.746-.456.817-.315.07-.7-.142-.77-.497-.07-.32.14-.64.42-.746zm-8.79.178a.632.632 0 01.84.39c.105.32-.07.71-.385.817-.316.106-.666-.036-.77-.355-.176-.32 0-.746.314-.852zm-3.188.32c.315-.072.666 0 .876.248.21.213.315.532.245.816-.07.284-.28.568-.56.675a.877.877 0 01-.876-.142c-.245-.213-.385-.533-.315-.852 0-.355.28-.64.63-.746zm5.92.106c.244-.107.56.106.49.39-.036.249-.35.426-.561.249-.21-.142-.175-.568.07-.64zm4.202 0c.245-.071.525.213.42.461-.07.284-.455.355-.63.107-.14-.142-.035-.497.21-.568zm-3.082.78a11.176 11.176 0 016.304 1.35 10.967 10.967 0 013.362 2.876 11.28 11.28 0 012.031 4.048 11.655 11.655 0 01-.035 6.107 10.967 10.967 0 01-2.171 4.154 10.918 10.918 0 01-3.362 2.734 11.024 11.024 0 01-5.184 1.314c-1.926 0-3.852-.497-5.533-1.491a11.31 11.31 0 01-5.148-6.569c-.49-1.598-.596-3.338-.35-4.97a11.146 11.146 0 011.82-4.652A11.363 11.363 0 019.998 6.7a10.7 10.7 0 014.973-1.704zM4.534 5.14c.63-.142 1.296.32 1.401.958.105.604-.35 1.243-.946 1.35-.595.106-1.225-.32-1.33-.959-.106-.604.315-1.243.875-1.35zm5.464.461c.28-.106.56.178.455.462-.07.249-.42.355-.596.142a.35.35 0 01.14-.604zm12.888.853c.245-.107.56.142.49.426-.035.248-.42.39-.595.177-.21-.177-.14-.532.105-.603zM6.88 6.559c.315-.142.7.071.805.39.105.32-.07.71-.385.817a.641.641 0 01-.806-.426c-.105-.284.07-.674.386-.78zm17.791.213c.28-.142.7 0 .84.284.176.32.036.746-.315.852-.315.142-.735 0-.84-.355-.14-.284.035-.674.315-.78zm2.171.746a.893.893 0 01.736.106.98.98 0 01.42.781c0 .32-.175.64-.455.782a.895.895 0 01-.98-.036c-.28-.177-.456-.568-.386-.888a.96.96 0 01.665-.745zm-22.73.816c.281-.07.631.036.806.249.175.213.28.497.245.746a.864.864 0 01-.525.71c-.315.142-.7.106-.945-.142-.246-.213-.386-.568-.28-.888.07-.32.35-.604.7-.675zm2.347.462c.245-.071.526.178.456.462-.07.248-.42.355-.596.142-.21-.213-.105-.568.14-.604zm22.8.178c.385-.107.77.035 1.05.284.28.284.421.71.316 1.1-.105.39-.42.746-.806.853a1.2 1.2 0 01-1.12-.285c-.28-.284-.386-.745-.28-1.136.105-.39.455-.71.84-.816zM1.557 10.358c.385-.106.806 0 1.086.284.35.32.455.888.28 1.314-.14.355-.49.64-.876.675a1.177 1.177 0 01-1.19-.568c-.21-.39-.175-.924.105-1.279.105-.213.35-.355.595-.426zm24.761.249c.245-.071.525.177.455.461-.07.249-.42.356-.595.178-.21-.178-.105-.568.14-.64zm-22.274.426c.315-.107.7.142.77.462.105.355-.21.745-.56.78a.611.611 0 01-.666-.603c-.035-.284.176-.568.456-.639zm23.675.675c.35-.107.736.106.806.461.07.355-.176.71-.49.781-.316.071-.666-.177-.736-.497-.07-.32.14-.639.42-.745zM4.36 13.34c.245-.107.525.106.525.355 0 .284-.35.462-.56.284-.245-.142-.21-.533.035-.64zm24.69.07a.874.874 0 011.122.463c.14.32.105.71-.105.994-.246.248-.63.355-.946.284-.385-.107-.665-.497-.665-.888 0-.39.245-.746.595-.852zm-26.791.143c.28-.071.63 0 .84.177a.954.954 0 01.28.96c-.07.283-.315.532-.63.638a.878.878 0 01-.946-.32.884.884 0 01-.105-.922.84.84 0 01.56-.533zm25.25 2.024c.246-.107.526.106.491.39 0 .284-.385.427-.595.249-.21-.142-.14-.533.105-.64zm2.978.213c.525-.178 1.156.142 1.366.639.175.39.105.888-.175 1.207-.28.355-.77.497-1.191.39-.49-.141-.876-.603-.84-1.135 0-.497.35-.995.84-1.101zm-27.283.248c.35-.106.77.178.806.569.035.32-.21.674-.56.71a.65.65 0 01-.701-.497c-.07-.32.14-.675.455-.782zm-2.276.604c.63-.142 1.33.355 1.366 1.03.07.639-.42 1.243-1.051 1.278-.595.071-1.156-.39-1.226-.994-.105-.604.315-1.207.91-1.314zm27.247.568c.316-.142.7.036.84.355.141.32-.07.746-.384.852-.316.107-.7-.106-.77-.426-.14-.284.034-.639.314-.78zm-23.85.852c.245-.106.525.178.455.462-.07.248-.42.355-.595.142-.21-.178-.105-.568.14-.604zm-1.576 1.208c.28-.071.63.035.84.248.21.213.316.533.246.817a.839.839 0 01-.49.639c-.316.142-.701.106-.946-.107s-.386-.532-.316-.852c.035-.355.316-.639.666-.745zm25.987 0c.28-.071.595 0 .805.213.245.213.35.532.28.852a.916.916 0 01-.56.674.823.823 0 01-.805-.106.851.851 0 01-.386-.817c-.035-.355.28-.71.666-.816zm-2.032.958c.21-.142.526.036.526.32.035.284-.28.461-.526.355-.28-.142-.28-.568 0-.675zM4.394 21.26c.315-.142.77.035.84.426.106.32-.105.71-.42.781-.28.107-.63-.07-.77-.355-.105-.32.035-.71.35-.852zm22.274.71c.35-.142.736.107.806.462.07.32-.14.71-.49.745a.627.627 0 01-.736-.497c-.07-.284.105-.603.42-.71zm2.137.107c.595-.213 1.296.213 1.436.816.175.604-.245 1.279-.84 1.42-.596.178-1.227-.212-1.402-.816-.14-.604.245-1.278.806-1.42zm-26.092.568c.56-.213 1.226.142 1.436.71.245.568-.105 1.314-.7 1.491-.596.249-1.296-.106-1.472-.71-.21-.604.14-1.314.736-1.491zm3.432.035c.245-.142.595.107.525.39-.035.25-.385.391-.56.214-.21-.142-.175-.497.035-.604zm20.068 1.385c.28-.071.595 0 .806.213.245.213.35.533.28.852-.07.284-.245.533-.526.64a.91.91 0 01-.945-.143c-.245-.213-.35-.603-.28-.923.105-.32.35-.568.665-.639zm-20.768.249a.97.97 0 01.875.248.94.94 0 01.175.994c-.175.39-.595.64-1.015.533-.386-.071-.7-.462-.7-.888-.036-.39.28-.78.665-.887zm18.246.355c.246-.142.56.07.526.355 0 .284-.35.426-.56.248-.246-.106-.21-.497.034-.603zm-16.005.78a.625.625 0 01.77.356c.14.32-.034.71-.35.817a.604.604 0 01-.805-.356c-.14-.32.07-.745.385-.816zm2.031.604c.21-.106.526.071.526.32s-.315.462-.526.32c-.28-.107-.245-.498 0-.64zm12.994.178c.315-.142.7.035.84.355.14.32-.035.71-.35.817a.604.604 0 01-.805-.355c-.176-.284 0-.675.315-.817zm2.416.462c.526-.178 1.156.07 1.366.603.21.426.105.994-.21 1.35-.35.354-.875.426-1.296.212-.455-.213-.7-.745-.63-1.207.035-.426.35-.816.77-.958zm-5.813.532c.245-.106.56.142.49.39-.035.25-.385.391-.595.214-.176-.142-.14-.497.105-.604zm-12.328.178c.56-.178 1.225.177 1.4.745.21.568-.14 1.279-.7 1.456-.385.142-.84.071-1.156-.213-.315-.284-.455-.781-.35-1.207.105-.39.42-.675.806-.781zm7.494.284c.21-.071.456.07.456.32.035.212-.14.39-.35.39-.21 0-.386-.142-.386-.355 0-.142.14-.32.28-.355zm-4.447.142c.28-.071.56 0 .77.177.245.178.35.462.35.781 0 .32-.21.604-.49.746-.28.142-.665.142-.946-.07a.82.82 0 01-.35-.853c.035-.355.315-.675.666-.781zm11.242.07a.87.87 0 01.875.214c.246.248.35.674.21.994-.14.355-.525.604-.875.568-.455-.035-.806-.426-.84-.852a.889.889 0 01.63-.923zm-8.826.036c.35-.106.736.142.806.462.105.355-.175.746-.526.781-.315.036-.665-.213-.7-.533-.07-.32.14-.639.42-.71zm5.219.32c.315-.142.7.035.805.355.14.32-.035.71-.35.817-.315.142-.7-.036-.84-.355-.106-.32.07-.71.385-.817zm-2.172.852c.315-.107.666-.035.876.178.21.177.315.461.28.745a.935.935 0 01-.49.746c-.28.142-.63.106-.911-.071-.28-.213-.455-.568-.385-.923.105-.284.35-.568.63-.675zm3.713.64c.525-.107 1.12.212 1.295.745.175.497 0 1.065-.42 1.35-.385.283-.98.248-1.33-.036-.316-.213-.456-.604-.456-.995 0-.497.42-.958.91-1.065zm-6.48.141c.35-.07.736 0 .981.213.42.355.56.994.28 1.492-.21.355-.595.603-1.015.603-.386 0-.736-.213-.946-.532-.21-.32-.245-.746-.07-1.066.14-.355.42-.603.77-.71z" fill="#F7AF22" fill-rule="nonzero"/></g></svg>